<?xml version="1.0" encoding="UTF-8" standalone="no"?>
<svg
   xmlns:dc="http://purl.org/dc/elements/1.1/"
   xmlns:cc="http://creativecommons.org/ns#"
   xmlns:rdf="http://www.w3.org/1999/02/22-rdf-syntax-ns#"
   xmlns:svg="http://www.w3.org/2000/svg"
   xmlns="http://www.w3.org/2000/svg"
   xmlns:sodipodi="http://sodipodi.sourceforge.net/DTD/sodipodi-0.dtd"
   xmlns:inkscape="http://www.inkscape.org/namespaces/inkscape"
   width="303.82867mm"
   height="61.500702mm"
   viewBox="0 0 303.82867 61.5007"
   version="1.1"
   id="svg128"
   inkscape:version="1.0.1 (3bc2e813f5, 2020-09-07)"
   sodipodi:docname="TrueSolution.svg"
   inkscape:export-filename="C:\Users\Knowhow\Documents\TrueSolution\NewLogo\TrueSolution.png"
   inkscape:export-xdpi="67.12825"
   inkscape:export-ydpi="67.12825">
  <defs
     id="defs122" />
  <sodipodi:namedview
     id="base"
     pagecolor="#ffffff"
     bordercolor="#666666"
     borderopacity="1.0"
     inkscape:pageopacity="0.0"
     inkscape:pageshadow="2"
     inkscape:zoom="1"
     inkscape:cx="549.29194"
     inkscape:cy="114.12799"
     inkscape:document-units="mm"
     inkscape:current-layer="layer1"
     inkscape:document-rotation="0"
     showgrid="true"
     showguides="false"
     inkscape:window-width="1920"
     inkscape:window-height="1001"
     inkscape:window-x="-9"
     inkscape:window-y="-9"
     inkscape:window-maximized="1">
    <inkscape:grid
       type="xygrid"
       id="grid809"
       originx="-200.35397"
       originy="-114.02884" />
  </sodipodi:namedview>
  <metadata
     id="metadata125">
    <rdf:RDF>
      <cc:Work
         rdf:about="">
        <dc:format>image/svg+xml</dc:format>
        <dc:type
           rdf:resource="http://purl.org/dc/dcmitype/StillImage" />
        <dc:title />
      </cc:Work>
    </rdf:RDF>
  </metadata>
  <g
     inkscape:label="Layer 1"
     inkscape:groupmode="layer"
     id="layer1"
     transform="translate(1.4198843,-141.51962)">
    <text
       xml:space="preserve"
       style="font-style:normal;font-variant:normal;font-weight:300;font-stretch:normal;font-size:39.6279px;line-height:1.25;font-family:Roboto;-inkscape-font-specification:'Roboto, Light';font-variant-ligatures:normal;font-variant-caps:normal;font-variant-numeric:normal;font-variant-east-asian:normal;fill:#212e57;fill-opacity:1;stroke:none;stroke-width:0.990705"
       x="69.015259"
       y="181.03917"
       id="text688"
       transform="scale(1.005585,0.99444601)"><tspan
         sodipodi:role="line"
         id="tspan686"
         x="69.015259"
         y="181.03917"
         style="font-style:normal;font-variant:normal;font-weight:300;font-stretch:normal;font-size:39.6279px;font-family:Roboto;-inkscape-font-specification:'Roboto, Light';font-variant-ligatures:normal;font-variant-caps:normal;font-variant-numeric:normal;font-variant-east-asian:normal;fill:#212e57;fill-opacity:1;stroke-width:0.990705">True Solution</tspan></text>
    <text
       xml:space="preserve"
       style="font-style:normal;font-variant:normal;font-weight:300;font-stretch:normal;font-size:36.219px;line-height:1.25;font-family:Roboto;-inkscape-font-specification:'Roboto, Light';font-variant-ligatures:normal;font-variant-caps:normal;font-variant-numeric:normal;font-variant-east-asian:normal;fill:#212e57;fill-opacity:1;stroke:none;stroke-width:0.905474"
       x="76.36425"
       y="196.91037"
       id="text692"
       transform="scale(0.99227001,1.0077902)"><tspan
         sodipodi:role="line"
         id="tspan690"
         x="76.36425"
         y="196.91037"
         style="font-style:normal;font-variant:normal;font-weight:300;font-stretch:normal;font-size:18.7505px;font-family:Roboto;-inkscape-font-specification:'Roboto, Light';font-variant-ligatures:normal;font-variant-caps:normal;font-variant-numeric:normal;font-variant-east-asian:normal;fill:#212e57;fill-opacity:1;stroke-width:0.905474">mortgage &amp; financial advice</tspan></text>
    <path
       id="path729"
       style="fill:#f29f00;fill-opacity:0.996078;stroke-width:0.686553"
       d="m 36.185679,160.28359 a 19.223532,19.223532 0 0 0 -0.915854,0.0233 19.223532,19.223532 0 0 0 -18.231244,19.85243 19.223532,19.223532 0 0 0 19.538648,18.56784 19.223532,19.223532 0 0 0 11.467608,-4.04158 17.163868,17.163868 0 0 1 -8.176971,2.23266 17.163868,17.163868 0 0 1 -17.446805,-16.57789 17.163868,17.163868 0 0 1 16.278857,-17.7257 17.163868,17.163868 0 0 1 11.491744,3.65669 19.223532,19.223532 0 0 0 -14.005983,-5.98859 z" />
    <path
       id="path755"
       style="fill:#223258;fill-opacity:1;stroke-width:0.686553"
       d="m 36.4069,152.65653 a 23.342861,23.342861 0 0 0 -1.00972,0.0296 23.342861,23.342861 0 0 0 -22.138703,24.10584 23.342861,23.342861 0 0 0 4.154191,12.51755 21.283197,21.283197 0 0 1 -2.388191,-9.0955 21.283197,21.283197 0 0 1 20.184975,-21.98048 21.283197,21.283197 0 0 1 22.319732,19.80951 l 0.04962,1.44687 a 21.283197,21.283197 0 0 1 -4.300359,12.8273 23.342861,23.342861 0 0 0 6.652344,-16.31908 l -0.05364,-1.58633 A 23.342861,23.342861 0 0 0 36.406904,152.65662 Z" />
    <path
       id="path769"
       style="fill:#8a8ea6;fill-opacity:1;stroke-width:0.686553"
       d="m 27.107541,148.52219 a 26.775635,26.775635 0 0 0 -1.409617,0.30349 26.775635,26.775635 0 0 0 -19.783072,31.90771 26.775635,26.775635 0 0 0 31.566727,20.32291 26.775635,26.775635 0 0 0 11.58551,-5.55768 24.372693,24.372693 0 0 1 -8.440605,3.50474 24.372693,24.372693 0 0 1 -28.734343,-18.4987 24.372693,24.372693 0 0 1 18.008265,-29.04512 24.372693,24.372693 0 0 1 22.32574,5.79734 26.775635,26.775635 0 0 0 -25.118605,-8.73469 z" />
  </g>
</svg>
